<svg width="656" height="355" viewBox="0 0 656 355" fill="none" xmlns="http://www.w3.org/2000/svg">
<g clip-path="url(#clip0_1_92)">
<path d="M495.451 76.8563L458.658 121.577C452.693 128.826 440.972 125.753 439.332 116.509L428.949 57.984C427.746 51.2026 422.967 45.6032 416.459 43.3493L314.202 7.93579C312.43 7.32213 310.531 7.17164 308.684 7.49862L168.784 32.2726C167.931 32.4237 167.099 32.6749 166.305 33.0212L103.745 60.3031C101.948 61.0868 100.393 62.3365 99.2407 63.9229L45.4662 137.981C44.501 139.31 43.8458 140.839 43.5486 142.454L29.9261 216.527C28.8524 222.365 32.6048 228.002 38.4053 229.265L113 245.5L164.928 291.711C166.603 293.201 168.693 294.144 170.918 294.414L276.746 307.227C278.233 307.407 279.668 307.889 280.962 308.643L340.571 343.38C345.163 346.055 351.011 345.066 354.467 341.028L435.341 246.533C439.663 241.483 447.442 241.391 451.883 246.337L507.815 308.632C514.554 316.138 527 311.371 527 301.283V239.146C527 237.729 526.726 236.325 526.193 235.011L498.882 167.694C497.674 164.715 497.829 161.357 499.307 158.502L527 105L632.672 24.5192C639.393 19.4002 632.973 8.96303 625.373 12.6535L499.141 73.95C497.716 74.6418 496.457 75.6332 495.451 76.8563Z" fill="url(#paint0_linear_1_92)"/>
<path fill-rule="evenodd" clip-rule="evenodd" d="M297.56 101.926C298.467 107.957 298.284 114.102 297.021 120.069L264.342 274.492C263.004 280.812 260.478 286.82 256.898 292.197L249.118 303.882L232.94 301.923L239.259 293.85C244.319 287.383 247.744 279.789 249.24 271.715L276.466 124.837C278.147 115.768 277.337 106.411 274.122 97.7656L245.011 19.4795L284.17 12.9014L297.56 101.926ZM252.121 120.686C253.032 126.798 252.825 133.025 251.51 139.063L224.092 264.901C222.71 271.242 220.131 277.261 216.493 282.635L205.67 298.621L191.22 296.871L201.192 284.324C206.321 277.871 209.809 270.27 211.357 262.174L233.968 143.981C235.726 134.792 234.921 125.295 231.644 116.531L198.277 27.3291L237.226 20.7871L252.121 120.686Z" fill="#C3A6F8"/>
<g filter="url(#filter0_d_1_92)">
<circle cx="159.5" cy="125.5" r="54.5" fill="#D9D9D9"/>
</g>
<ellipse cx="143" cy="125.5" rx="26" ry="27.5" fill="#0B1E44"/>
<path d="M434.097 186.33L354.359 337.199C353.806 338.244 355.204 339.214 355.99 338.331L439.158 244.879C441.494 242.254 445.576 242.19 447.994 244.74L502.42 302.142C503.221 302.987 504.576 302.012 504.028 300.984L442.931 186.315C441.045 182.777 435.971 182.785 434.097 186.33Z" fill="#1A148F"/>
</g>
<defs>
<filter id="filter0_d_1_92" x="105" y="71" width="109" height="119" filterUnits="userSpaceOnUse" color-interpolation-filters="sRGB">
<feFlood flood-opacity="0" result="BackgroundImageFix"/>
<feColorMatrix in="SourceAlpha" type="matrix" values="0 0 0 0 0 0 0 0 0 0 0 0 0 0 0 0 0 0 127 0" result="hardAlpha"/>
<feOffset dy="10"/>
<feComposite in2="hardAlpha" operator="out"/>
<feColorMatrix type="matrix" values="0 0 0 0 0 0 0 0 0 0 0 0 0 0 0 0 0 0 0.25 0"/>
<feBlend mode="normal" in2="BackgroundImageFix" result="effect1_dropShadow_1_92"/>
<feBlend mode="normal" in="SourceGraphic" in2="effect1_dropShadow_1_92" result="shape"/>
</filter>
<linearGradient id="paint0_linear_1_92" x1="322" y1="0.499994" x2="322" y2="348" gradientUnits="userSpaceOnUse">
<stop stop-color="#326FFE"/>
<stop offset="1" stop-color="#850687"/>
</linearGradient>
<clipPath id="clip0_1_92">
<rect width="656" height="355" fill="white"/>
</clipPath>
</defs>
</svg>
