<svg width="579" height="355" viewBox="0 0 579 355" fill="none" xmlns="http://www.w3.org/2000/svg">
<path d="M493.678 79.0112L458.658 121.577C452.693 128.826 440.972 125.753 439.332 116.509L428.949 57.984C427.746 51.2026 422.967 45.6032 416.459 43.3493L314.202 7.93579C312.43 7.32213 310.531 7.17164 308.684 7.49862L168.784 32.2726C167.931 32.4237 167.099 32.6749 166.305 33.0212L103.745 60.3031C101.948 61.0868 100.393 62.3365 99.2407 63.9229L47.5725 135.08C45.3493 138.142 44.8558 142.131 46.2658 145.642L68.624 201.319C69.2015 202.757 70.0763 204.056 71.1911 205.133L113 245.5L164.928 291.711C166.603 293.201 168.693 294.144 170.918 294.414L276.746 307.227C278.233 307.407 279.668 307.889 280.962 308.643L340.571 343.38C345.163 346.055 351.011 345.066 354.467 341.028L435.341 246.533C439.663 241.483 447.442 241.391 451.883 246.337L507.815 308.632C514.554 316.138 527 311.371 527 301.283V239.146C527 237.729 526.726 236.325 526.193 235.011L498.882 167.694C497.674 164.715 497.829 161.357 499.307 158.502L527 105V82C527 78.134 523.866 75 520 75H502.173C498.884 75 495.768 76.4715 493.678 79.0112Z" fill="url(#paint0_linear_1_93)"/>
<path d="M297.56 101.927C298.467 107.958 298.284 114.103 297.021 120.07L264.342 274.493C263.004 280.813 260.478 286.821 256.898 292.198L249.119 303.882L232.939 301.923L239.258 293.85C244.319 287.383 247.744 279.789 249.24 271.715L276.466 124.837C278.147 115.768 277.337 106.412 274.122 97.7666L245.01 19.4795L284.17 12.9014L297.56 101.927ZM252.121 120.686C253.032 126.798 252.825 133.026 251.51 139.064L224.091 264.901C222.709 271.242 220.13 277.261 216.492 282.635L205.669 298.621L191.22 296.871L201.191 284.324C206.32 277.871 209.809 270.271 211.357 262.175L233.967 143.982C235.725 134.793 234.921 125.296 231.643 116.532L198.276 27.3301L237.226 20.7871L252.121 120.686Z" fill="#59EDAF"/>
<g filter="url(#filter0_d_1_93)">
<circle cx="159.5" cy="125.5" r="54.5" fill="#D9D9D9"/>
</g>
<ellipse cx="143" cy="125.5" rx="26" ry="27.5" fill="#0B1E44"/>
<path d="M434.097 186.33L354.359 337.199C353.806 338.244 355.204 339.214 355.99 338.331L439.158 244.879C441.494 242.254 445.576 242.19 447.994 244.74L502.42 302.142C503.221 302.987 504.576 302.012 504.028 300.984L442.931 186.315C441.045 182.777 435.971 182.785 434.097 186.33Z" fill="#1A148F"/>
<defs>
<filter id="filter0_d_1_93" x="105" y="71" width="109" height="119" filterUnits="userSpaceOnUse" color-interpolation-filters="sRGB">
<feFlood flood-opacity="0" result="BackgroundImageFix"/>
<feColorMatrix in="SourceAlpha" type="matrix" values="0 0 0 0 0 0 0 0 0 0 0 0 0 0 0 0 0 0 127 0" result="hardAlpha"/>
<feOffset dy="10"/>
<feComposite in2="hardAlpha" operator="out"/>
<feColorMatrix type="matrix" values="0 0 0 0 0 0 0 0 0 0 0 0 0 0 0 0 0 0 0.25 0"/>
<feBlend mode="normal" in2="BackgroundImageFix" result="effect1_dropShadow_1_93"/>
<feBlend mode="normal" in="SourceGraphic" in2="effect1_dropShadow_1_93" result="shape"/>
</filter>
<linearGradient id="paint0_linear_1_93" x1="322" y1="0.499994" x2="322" y2="348" gradientUnits="userSpaceOnUse">
<stop stop-color="#32FE6C"/>
<stop offset="1" stop-color="#061787"/>
</linearGradient>
</defs>
</svg>
