<svg width="579" height="355" viewBox="0 0 579 355" fill="none" xmlns="http://www.w3.org/2000/svg">
<path d="M494.155 78.4312L453.307 128.08C448.505 133.917 439.383 133.283 435.434 126.839L361.879 6.82967C359.535 3.0047 355.103 0.986657 350.679 1.72984L168.834 32.2758C167.948 32.4247 167.083 32.6817 166.26 33.0409L105.996 59.3211C102.848 60.6941 100.522 63.4587 99.7073 66.7953L75.5741 165.648C75.1959 167.198 74.4854 168.646 73.4917 169.893L36.599 216.205C32.1967 221.732 34.0715 229.916 40.4404 232.975L165.863 293.214C166.947 293.734 168.109 294.074 169.303 294.218L276.746 307.227C278.233 307.407 279.668 307.889 280.962 308.643L340.571 343.38C345.163 346.055 351.011 345.066 354.467 341.028L436.004 245.758C440.086 240.989 447.325 240.597 451.897 244.897L498.043 288.295C501.631 291.67 507.024 292.248 511.246 289.71L557.843 261.703C562.739 258.761 564.568 252.56 562.052 247.431L522.522 166.831C521.027 163.783 521.023 160.215 522.511 157.164L557.696 85.0465C561.505 77.2377 555.184 68.3022 546.552 69.2955L501.392 74.4921C498.561 74.8179 495.966 76.2301 494.155 78.4312Z" fill="url(#paint0_linear_1_91)"/>
<path d="M374.373 27.2139L298.622 318.935L279 307.5L257.229 304.863L337.405 3.95898L358 0.5L374.373 27.2139ZM225.772 301.055L182.12 295.77L256.24 17.5928L301.347 10.0156L225.772 301.055Z" fill="#FFC695"/>
<g filter="url(#filter0_d_1_91)">
<circle cx="159.5" cy="125.5" r="54.5" fill="#D9D9D9"/>
</g>
<ellipse cx="143" cy="125.5" rx="26" ry="27.5" fill="#0B1E44"/>
<path d="M434.243 186.054L354.359 337.199C353.806 338.244 355.204 339.214 355.99 338.331L439.542 244.447C441.733 241.985 445.499 241.751 447.978 243.923L499.533 289.087C500.381 289.83 501.619 288.819 501.061 287.84L443.009 185.916C441.056 182.487 436.087 182.565 434.243 186.054Z" fill="#BD480E"/>
<defs>
<filter id="filter0_d_1_91" x="105" y="71" width="109" height="119" filterUnits="userSpaceOnUse" color-interpolation-filters="sRGB">
<feFlood flood-opacity="0" result="BackgroundImageFix"/>
<feColorMatrix in="SourceAlpha" type="matrix" values="0 0 0 0 0 0 0 0 0 0 0 0 0 0 0 0 0 0 127 0" result="hardAlpha"/>
<feOffset dy="10"/>
<feComposite in2="hardAlpha" operator="out"/>
<feColorMatrix type="matrix" values="0 0 0 0 0 0 0 0 0 0 0 0 0 0 0 0 0 0 0.25 0"/>
<feBlend mode="normal" in2="BackgroundImageFix" result="effect1_dropShadow_1_91"/>
<feBlend mode="normal" in="SourceGraphic" in2="effect1_dropShadow_1_91" result="shape"/>
</filter>
<linearGradient id="paint0_linear_1_91" x1="322" y1="0.5" x2="322" y2="348" gradientUnits="userSpaceOnUse">
<stop stop-color="#F8AA0E"/>
<stop offset="1" stop-color="#D65910"/>
</linearGradient>
</defs>
</svg>
