<svg
    width="4549"
    height="2559"
    viewBox="0 0 4549 2559"
    fill="none"
    xmlns="http://www.w3.org/2000/svg"
>
<g clip-path="url(#clip0_15_92)">
<path
            d="M3793.19 2313.45L3646.21 2591.42L3645.33 2762.41L4081.81 2814.08L4635.65 2530.09L4592.85 2473.58L4438.81 2487.28L4410.62 2382.69L4223.42 2298.8L4156.91 2184.07L4123.48 1989.02L4270.01 1855.35L4381.72 1845.41L4424.94 1761.14L4263.03 1695.31L4405.42 1541.69L4438.58 1389.79L4287 1513.09L4126.92 1477.28L4319.5 1244.59L4230.5 1209.59L4087.5 1244.59L4119 1136.59L4034 1076.59L4065.81 966.586L3793.2 905.586L3896.21 1048.59L3677.5 1009.09L3793.19 1176.09L3625.78 1230.59L3731.78 1410.57L3629.59 1500.09L3625.78 1728.61L3746.18 1784.78L3896.21 2099.96L3793.19 2313.45Z"
            fill="#1D1537"
        />
<path
            d="M3559.49 2585.78L3714.9 2672.87L3734.37 2736.25L3368.92 2803.22L2866.92 2758.44L2897.12 2732.77L3029.6 2720.99L3042.11 2679.08L3192.09 2627.44L3236.08 2577.57L3243.15 2501.51L3103.93 2467.93L3007.85 2476.47L2961.88 2449.92L3092.33 2407.76L2954.45 2366.32L2909.62 2313.57L3184.19 2311.92L3041.38 2267.59L3254.34 2222.47L3201.37 2187.33L3124.13 2090.63L3259.98 2068.55L3404.54 2023.13L3467.94 2050.05L3437.65 2166.32L3554.94 2145.73L3512.85 2243.89L3609.54 2265.93L3637.8 2350.34L3541.58 2384.38L3448.53 2517.8L3559.49 2585.78Z"
            fill="#1D1537"
        />
<path
            d="M1513.14 2672.38L1710.8 2801.61L1745.98 2905.19L1335.12 3054.03L743.6 3030.64L773.552 2984.81L924.971 2951.67L931.172 2880.58L1095 2779.26L1136.14 2691.7L1129.25 2564.27L960.999 2522.54L851.186 2546.57L792.563 2507.03L935.599 2423.49L767.337 2368.53L704.836 2285.23L1023.18 2254.47L848.63 2195.2L1086.85 2098.33L1018.39 2045.19L909.543 1891.99L1062.83 1841.35L1221.59 1750.95L1300.53 1789.33L1288.45 1986.08L1420.49 1939.82L1391.13 2107.63L1507.73 2134.49L1557.28 2272.21L1452.37 2338.72L1370.86 2570.47L1513.14 2672.38Z"
            fill="#1D1537"
        />
<path
            d="M832.512 3095.02L660.759 3257.1L644.411 3365.27L1075.08 3439.27L1653.2 3311.86L1615.63 3272.03L1460.74 3266.13L1442.09 3197.25L1262.95 3126.44L1207 3047.51L1191.3 2920.87L1349.55 2850.1L1461.88 2854.37L1512.6 2805.11L1357.07 2748.12L1512.99 2664.33L1559.81 2571.3L1241.04 2597.21L1402.39 2508.07L1150.81 2454.75L1208.82 2390.36L1288.92 2220.36L1129.11 2197.57L956.881 2136.61L885.958 2188.31L932.568 2379.85L794.43 2357.61L852.95 2517.61L742.92 2564.62L718.447 2708.93L833.451 2755.88L954.576 2969.6L832.512 3095.02Z"
            fill="#1D1537"
        />
<path
            d="M1375.58 2818.16L1243.08 2912.84L1237.02 2956.54L1603.15 2898.85L2078.63 2736.59L2044.34 2729.14L1914.12 2757.64L1893.63 2735.57L1738.52 2744.59L1686.06 2726.15L1663.97 2681.89L1791.59 2624.05L1886.02 2603.38L1925.06 2574.9L1790.7 2584.41L1915.45 2522.16L1948.12 2478.08L1682.81 2550.96L1811.74 2485.63L1597.15 2515.56L1641.22 2479.97L1696.35 2400.5L1560.82 2423.66L1412.19 2434.99L1356.4 2468.39L1408.97 2530.8L1291.64 2549.87L1351.97 2598.12L1263.08 2637.51L1252.75 2696.35L1352.44 2691.11L1469.03 2747.05L1375.58 2818.16Z"
            fill="#1D1537"
        />
</g>
<defs>
<clipPath id="clip0_15_92">
<rect width="4549" height="2559" fill="white" />
</clipPath>
</defs>
</svg>
