<svg
    width="3261"
    height="2332"
    viewBox="0 0 3261 2332"
    fill="none"
    xmlns="http://www.w3.org/2000/svg"
>
<g clip-path="url(#clip0_17_112)">
<path
            d="M152.074 2175.46L306.856 2397.18L321.357 2540.24L-67.9631 2615.97L-589.999 2419.5L-555.953 2369.01H-415.987L-398.964 2279.37L-236.931 2195.22L-186.178 2094.24L-171.677 1928.5L-314.48 1827.52H-415.987L-461.697 1760.2L-321.023 1693.06L-461.697 1575.07L-503.769 1450.41L-215.805 1500.43L-361.369 1375.13L-133.925 1317.63L-186.178 1230.06L-258.129 1002.51L-113.673 980.533L-36.4985 783.5L113.502 881L42.0962 1093.5L188.326 1207.74L135.051 1415.19L234.351 1482.51L256.103 1673.49L152.074 1729.47L42.0962 2004.44L152.074 2175.46Z"
            fill="#1D1537"
        />
<path
            d="M69.6827 2445.26L-191.527 2529.69L-215.999 2584.16L441.016 2613L1322 2538.19L1264.55 2518.96H1028.34L999.611 2484.83L726.166 2452.78L640.514 2414.33L616.042 2351.22L948.001 2380.13L1065.5 2351.22L1105.48 2287.13L868.077 2261.56L1140 2275.43L1232.5 2177L690.513 2188.21L936.166 2140.5L552.333 2118.6L640.514 2085.26L761.939 1998.61L518.155 1990.24L255.28 1963L147.354 1990.24L219.234 2085.26L8.50322 2076.76L98.4105 2155.75L-69.1682 2181.39L-105.876 2254.11L69.6827 2275.43L255.28 2380.13L69.6827 2445.26Z"
            fill="#1D1537"
        />
<path
            d="M1819.96 2429.6L2083.72 2328.9L2109.88 2260.4L1453.96 2207.69L570.908 2280.99L627.748 2306.79L863.883 2312.59L891.539 2356.59L1163.91 2403.95L1248.33 2454.84L1270.83 2535.5L939.875 2490.67L821.51 2524.47L779.549 2604.8L1016.08 2643.06L777.354 2694.23L704.898 2752.71L1191.31 2740.47L944.246 2794.97L1327.28 2832.17L1238.09 2872.31L1114 2979.25L1357.45 2995.85L1619.4 3036.85L1728.14 3004.94L1659.24 2882.64L1869.64 2898.59L1782.22 2796.17L1950.55 2767.76L1989.51 2676.4L1814.67 2645.05L1632.39 2507.67L1819.96 2429.6Z"
            fill="#1D1537"
        />
<path
            d="M2247.14 2195.79L2073.83 2374.22L2046.88 2499.39L2427.31 2612.35L2963.53 2499.52L2934.11 2450.73L2794.95 2434.27L2785.88 2352.77L2632.16 2259.08L2590.55 2163.55L2590.65 2014.85L2741.47 1942.1L2842.39 1954.04L2893.74 1899.71L2759.76 1823.61L2909.95 1735.52L2962.7 1629.91L2672.03 1640.4L2827.72 1546.4L2606.64 1468.64L2666.26 1397.13L2757.73 1203.78L2616.03 1167.3L2467.44 1085.54L2397.59 1141.45L2418.07 1367.76L2295.88 1333.28L2330.67 1523.52L2226.05 1571.55L2187.69 1738.37L2286.21 1800.25L2371.46 2057.05L2247.14 2195.79Z"
            fill="#1D1537"
        />
<path
            d="M2443.99 2654.78L2276.17 2777.66L2252.76 2866.98L2635.07 2960.97L3166.43 2897.36L3135.75 2861.23L2996.6 2844.77L2985.31 2785.72L2829.5 2713.12L2785.39 2642.89L2781.39 2535.72L2929.72 2488.27L3030.64 2500.21L3080.31 2462.75L2944.67 2403.48L3091.95 2344.95L3141.61 2270.57L2852.17 2268.53L3004.77 2205.92L2782.26 2142.57L2839.71 2093L2925.55 1956.67L2783.31 1925.69L2632.94 1861.85L2564.86 1899.85L2591.53 2063.63L2468.78 2034.74L2508.71 2173.01L2405.75 2204.17L2372.12 2323.13L2472.03 2370.99L2564.08 2558.89L2443.99 2654.78Z"
            fill="#1D1537"
        />
<path
            d="M2390.63 2390.7L2531.49 2424.03L2549.69 2456.5L2221.36 2524.69L1768.89 2544.6L1795.8 2528.11L1914.96 2510.13L1925.78 2486.43L2060.27 2445.42L2099.34 2414.66L2104.9 2373.02L1979.19 2367.13L1892.77 2380.17L1851.1 2369.89L1968.11 2335.7L1843.52 2325.45L1802.59 2300.94L2049.79 2275.95L1920.74 2264.58L2112.01 2221.56L2063.94 2207.25L1993.36 2161.89L2115.44 2138.05L2245.12 2100.88L2302.49 2109.83L2276.46 2175.19L2381.85 2153.79L2344.99 2210.42L2432.29 2213.82L2458.63 2256.86L2372.36 2283.66L2290 2363.78L2390.63 2390.7Z"
            fill="#1D1537"
        />
</g>
<defs>
<clipPath id="clip0_17_112">
<rect width="3261" height="2332" fill="white" />
</clipPath>
</defs>
</svg>
