<?xml version="1.0" encoding="UTF-8" standalone="no" ?>
<!DOCTYPE svg PUBLIC "-//W3C//DTD SVG 1.1//EN"
    "http://www.w3.org/Graphics/SVG/1.1/DTD/svg11.dtd">
<svg
    width="100%"
    height="100%"
    viewBox="0 0 500 500"
    version="1.1"
    xmlns="http://www.w3.org/2000/svg"
    xmlns:xlink="http://www.w3.org/1999/xlink"
    xml:space="preserve"
    xmlns:serif="http://www.serif.com/"
    style="fill-rule:evenodd;clip-rule:evenodd;stroke-linecap:round;stroke-linejoin:round;stroke-miterlimit:1.5;"
>
    <g
        id="Artboard1"
        transform="matrix(0.657895,0,0,0.978474,-458.553,56.7515)"
    >
        <rect x="697" y="-58" width="760" height="511" style="fill:none;" />
        <g transform="matrix(1.52,0,0,1.022,697,-58)">
            <circle cx="247.5" cy="247.5" r="233.5" style="fill:white;" />
        </g>
        <g id="Giraffe" transform="matrix(1.52,0,0,1.022,-608.68,12.518)">
            <clipPath id="_clip1">
                <circle cx="1106.5" cy="178.5" r="233.5" />
            </clipPath>
            <g clip-path="url(#_clip1)">
                <g
                    id="Giraffe1"
                    serif:id="Giraffe"
                    transform="matrix(0.895512,0,0,0.936267,111.13,9.68287)"
                >
                    <path
                        d="M1081.07,146.7C1060.97,139.057 1057.87,127.802 1076.22,133.452C1105.63,123.79 1133.75,118.942 1163.77,120.91C1173.37,119.899 1182.65,118.118 1191.59,115.523C1205.58,109.01 1220.08,106.979 1234.42,103.946C1218.67,99.847 1161.2,95.313 1150.04,93.593C1147.67,92.482 1130.75,106.173 1120.46,116.569C1117.84,116.469 1116.83,113.984 1117.26,110.432C1128.14,98.763 1138.86,88.774 1149,85.196C1173.99,88.537 1253.48,95.499 1266.18,98.961C1267.01,99.186 1266.53,105.853 1265.56,108.968C1264.63,111.938 1260.78,113.547 1260.34,117.657C1259.29,127.315 1250.38,153.798 1229.1,160.639C1202.68,169.136 1186.45,156.619 1185.18,126.899L1172.01,129.059C1169.05,162.28 1152.69,177.194 1127.9,181.201C1085.84,188.003 1091.73,159.933 1081.07,146.7Z"
                        style="stroke:black;stroke-width:2.5px;"
                    />
                    <path
                        d="M1218.07,107.264L1200.48,159.933C1191.26,154.73 1185.89,143.498 1185.18,126.899L1182.15,127.396L1185.85,117.066C1187.78,116.588 1189.69,116.074 1191.59,115.523C1200.27,111.48 1209.15,109.165 1218.07,107.264Z"
                        style="fill:rgb(138,138,138);stroke:black;stroke-width:2.5px;"
                    />
                    <g>
                        <path
                            d="M163.051,817.115C411.059,690.88 658.212,526.16 962.446,192.548L1064.74,264.06C949.678,336.023 643.545,779.719 570.875,904.962C552.784,936.14 626.477,997.635 625.597,1022.04C624.066,1064.54 563.826,1160.01 563.826,1160.01L148.668,1281.64L116.091,815.826L163.051,817.115Z"
                            style="fill:rgb(252,214,129);"
                        />
                        <path
                            d="M948.15,213.041C948.15,213.041 892.116,187.118 890.41,179.953C888.705,172.789 937.918,170.055 937.918,170.055C937.918,170.055 967.142,173.884 978.968,164.739C993.133,153.786 1013.73,149.556 1021.18,139.07C1028.38,128.922 1027.62,112.111 1023.63,101.818C1019.64,91.525 1014.93,89.789 1008.37,87.289C993.194,81.508 999.198,59.775 1010.9,58.483C1015.53,54.931 1030.43,65.954 1032.12,69.001C1034.69,73.659 1041.5,60.757 1046.72,61.787C1052.79,62.983 1055.74,70.526 1060.01,75.127C1064.17,79.616 1072.53,75.899 1075.75,86.957C1083.6,113.852 1094.39,113.255 1097.15,113.216C1118.69,112.911 1126.36,105.326 1136.44,106.682C1156.05,109.321 1165.29,127.654 1180.89,136.173C1209.4,151.731 1297.19,170.078 1323.61,186.681C1333.02,192.594 1334.68,199.702 1333.19,207.056C1331.27,216.487 1313.75,238.402 1300.79,243.263C1287.83,248.125 1264.66,234.12 1249.54,236.503C1226.44,240.145 1189.43,257.456 1163.84,262.887C1142.21,267.477 1112.82,267.363 1096.57,267.02C1085.94,266.797 1074.39,267.589 1064.69,263.062C1014.94,239.85 971.097,206.106 948.15,213.041Z"
                            style="fill:rgb(252,214,129);"
                        />
                    </g>
                    <path
                        d="M1180.08,135.718C1180.35,135.872 1180.62,136.024 1180.89,136.173C1200.41,146.825 1247.72,158.786 1284.1,170.6L1308.74,238.689C1306.01,240.717 1303.31,242.315 1300.78,243.263C1287.82,248.125 1264.66,234.12 1249.54,236.503C1227.83,239.925 1193.84,255.418 1168.59,261.78L1096,229.632L1121.55,267.022C1111.99,267.261 1103.18,267.16 1096.56,267.02C1085.94,266.797 1074.39,267.589 1064.68,263.062C1063.25,262.391 1061.81,261.711 1060.39,261.026L1064.73,264.06C1040.86,278.993 1008.76,309.93 972.195,350.736L921.354,332.646L954.238,371.152C921.466,409.047 885.83,453.57 849.804,500.702L754.152,472.998L819.414,540.942C787.603,583.543 756.014,627.317 726.329,669.526L520.804,605.149L664.857,758.639C636.16,801.088 611.292,839.181 592.53,869.221L427.406,814.18L580.485,949.299C597.582,977.065 626.144,1006.79 625.594,1022.04C625.011,1038.23 615.91,1062.1 604.864,1085.46L249.216,771.535C287.945,750.208 326.816,727.581 366.076,703.142L553.553,765.634L446.059,651.098C495.64,617.395 546.009,580.396 597.601,539.14L741.94,584.353L653.961,492.758C692.096,460.484 730.947,425.792 770.686,388.308L883.861,421.088L817.438,343.308C850.355,310.997 883.923,276.719 918.205,240.3L1025.21,278.375L951.71,170.85C960.937,170.85 972.528,169.716 978.965,164.739C993.13,153.786 1013.73,149.556 1021.17,139.07C1027.91,129.584 1027.68,114.275 1024.36,103.91L1196.09,179.963L1180.08,135.718Z"
                        style="fill:rgb(145,71,40);"
                    />
                    <path
                        d="M1331.65,211.403C1326.7,222.003 1312.03,239.047 1300.79,243.263C1287.83,248.125 1264.66,234.12 1249.55,236.503C1226.45,240.145 1189.43,257.456 1163.84,262.887C1142.22,267.477 1112.82,267.363 1096.57,267.02C1085.94,266.797 1074.39,267.589 1064.69,263.062C1063.25,262.391 1061.82,261.711 1060.4,261.026L1064.74,264.06C1063.98,264.535 1063.21,265.027 1062.44,265.529L1059.68,260.625C1059.68,260.625 1164.76,243.44 1196.89,236.624C1216.58,232.448 1236.9,219.941 1254.53,218.641C1270.89,217.435 1289.45,230.388 1302.69,228.825C1312.31,227.691 1326.16,216.244 1331.65,211.403Z"
                        style="fill-opacity:0.23;"
                    />
                    <path
                        d="M1174.31,131.814C1174.42,131.899 1174.53,131.983 1174.64,132.068L1174.95,132.305C1174.23,137.553 1168.68,175.017 1157.04,183.297C1144.3,192.361 1110.82,189.849 1096.38,186.181C1084.13,183.066 1086.02,158.984 1075.53,152.778C1065.79,147.021 1030.39,136.866 1023.53,134.927C1025.76,130.02 1026.67,124.222 1026.62,118.524L1089.6,139.424L1174.25,131.765L1174.31,131.814Z"
                        style="fill-opacity:0.23;"
                    />
                    <path
                        d="M1172.13,129.039L1172.01,129.059C1169.04,162.28 1152.68,177.194 1127.9,181.201C1085.83,188.003 1091.73,159.933 1081.07,146.7C1060.97,139.057 1041.32,130.832 1024.63,121.736C1016.45,129.551 1013.14,133.008 1009.42,134.046C1007.54,134.572 1006.07,128.58 1006.07,128.58C1006.07,128.58 1019.45,110.918 1021.77,110.646C1039.83,119.263 1057.87,127.802 1076.22,133.452C1105.15,123.944 1132.85,119.098 1162.33,120.821L1172.13,129.039Z"
                        style="stroke:black;stroke-width:2.5px;"
                    />
                    <path
                        d="M1150.35,120.478L1123.06,181.855C1108.01,183.459 1099.96,179.991 1095,174.462L1117.82,123.12C1128.58,121.406 1139.37,120.491 1150.35,120.478Z"
                        style="fill:rgb(138,138,138);stroke:black;stroke-width:2.5px;"
                    />
                    <path
                        d="M572.504,934.359L568.932,933.394C491.422,809.761 916.813,391.347 990.757,227.329L1060.5,261.056L1064.69,264.068L1058.67,268.073C939.277,351.105 642.302,781.86 570.875,904.962C566.155,913.096 567.683,923.294 572.504,934.359Z"
                        style="fill-opacity:0.25;"
                    />
                    <path
                        d="M1064.71,264.063C1064.96,263.871 1065.66,263.457 1065.66,263.457L1059.26,260.481L1062.37,265.592C1062.37,265.592 1064.22,264.441 1064.71,264.063Z"
                        style="fill:rgb(109,53,30);"
                    />
                </g>
            </g>
        </g>
    </g>
</svg>
