<svg width="2827" height="1408" viewBox="0 0 2827 1408" fill="none" xmlns="http://www.w3.org/2000/svg">
<path d="M262.22 753.029L281.294 838.871L285.597 1024.02L957.506 1231.25L2734.95 1065.72L2621.58 1030.41L2513.55 989.543L2246.05 909.895L1948.05 898.333L1670.55 838.871L1259.44 753.029L1227.43 682.977L1301.05 662.127L1411.05 627.273L1530.05 613.57L1510.55 581.882L1271.55 568.179L1395.05 545.483L1474.05 531.352L1439.55 489.647L1382.05 475.256L1184.55 464.551L1219.05 447.85L1395.05 432.006L1411.05 417.875L1356.55 417.875L1263.05 408.026L1327.05 392.61L1458.05 380.192L1445.55 371.628L1394.05 364.348L1355.05 351.207L1581.05 294.549L1670.55 272.282L1706.05 231.601L1477.55 153.665L1026.05 90.7182L348.05 90.7182L118.55 106.441L130.219 158.96L146.382 231.701L166.485 322.175L183.668 399.505L196.246 456.113L220.153 563.705L236.646 637.933L262.22 753.029Z" fill="url(#paint0_linear_50_93)"/>
<path opacity="0.5" d="M1325.05 393.467L1458.55 381.905L1369.55 376.338L1236.55 387.9L1050.05 408.026L1158.55 415.734L1265.55 408.026L1325.05 393.467Z" fill="#11135B"/>
<path opacity="0.5" d="M1607.05 264.146L1706.05 231.602L1671.05 271.854L1356.05 350.217H1180.05L1259.05 340.797L1607.05 264.146Z" fill="#11135B"/>
<path opacity="0.5" d="M1337.05 429.866L1409.55 418.304L1395.55 432.007L1219.05 447.851L1202.05 456.201L1185.05 464.551H914.55L1158.05 442.284L1337.05 429.866Z" fill="#11135B"/>
<path opacity="0.5" d="M1237.55 532.208L1381.55 505.231L1440.55 489.387L1474.55 532.208L1274.05 568.607L931.05 545.911L1067.55 525.785L1237.55 532.208Z" fill="#11135B"/>
<path d="M1406.55 608.431L1512.55 582.31L1531.05 613.569L1406.55 628.557L1228.05 683.797L1245.05 722.764L967.05 676.089L1153.55 641.832L1406.55 608.431Z" fill="#11053D" fill-opacity="0.5"/>
<defs>
<linearGradient id="paint0_linear_50_93" x1="1445.75" y1="363.676" x2="1426.57" y2="937.814" gradientUnits="userSpaceOnUse">
<stop stop-color="#4B55B4"/>
<stop offset="1" stop-color="#341F80"/>
</linearGradient>
</defs>
</svg>
